# xmcd
#
# Track frame offsets:
#	150
#	15647
#	36097
#	52996
#	76147
#	98987
#	115934
#	134262
#	149159
#	169065
#	185185
#	205474
#	224180
#	249459
#	270359
#
# Disc length: 3853 seconds
#
# Revision: 0
# Processed by: cddbd v1.5.1PL0 Copyright (c) Steve Scherf et al.
# Submitted via: EasyCDDAExtractor 5.0.2.1
#
DISCID=e30f0b0f
DTITLE=Various Artist - Country Remembers Sept 11
DYEAR=1900
DGENRE=Country
TTITLE0=Trace Adkins - Songs About Me
TTITLE1=Clint Black - When I Said I Do
TTITLE2=Lee Greenwood - God Bless The USA
TTITLE3=Hank Williams, Jr. - America Can Survive
TTITLE4=Alan Jackson - Where Were You (When the World Stopped Turning)
TTITLE5=Aaron Tippin - Where the Stars and Stripes And Eagles Fly
TTITLE6=Darryl Worely - Have You Forgotten?
TTITLE7=Toby Keith - Courtesy Of The Red, White, And Blue (The Angry American)
TTITLE8=Toby Keith - American Soldier
TTITLE9=Buddy Jewell - Sweet Southern Comfort
TTITLE10=John Michael Montgomery - Letters From Home
TTITLE11=Trace Adkins - Arlington
TTITLE12=Tim McGraw - Please Remember Me (9/11 Tribute)
TTITLE13=LeAnn Rimes - Please Remember Me (WTC Tribute)
TTITLE14=Garth Brooks - The Change (WTC - 9/11 Tribute)
EXTD=
EXTT0=
EXTT1=
EXTT2=
EXTT3=
EXTT4=
EXTT5=
EXTT6=
EXTT7=
EXTT8=
EXTT9=
EXTT10=
EXTT11=
EXTT12=
EXTT13=
EXTT14=
PLAYORDER=
